PathFileType	4	(X/Y/Z)	C:\Users\Biomechanik\SynologyDrive\AlexP\Athlete_03\Athlete_3_22_07_06\sq_70_EMG\marker_experimental.trc																																																																																																																																																																												
DataRate	CameraRate	NumFrames	NumMarkers	Units	OrigDataRate	OrigDataStartFrame	OrigNumFrames																																																																																																																																																																								
200	200	5	58	mm	200	384	1537																																																																																																																																																																								
Frame#	Time	BL			BR			GLAB			RFHD			LFHD			C7			T6			SPINMOL			SPINM2			SPINM3			T12			BELTOL			BELT2			BELT3			SACROL			SACR2			SACR3			LTHOL			LTH2			LTH3			LSHAOL			LSHA2			LSHA3			LHEE			LTOE			LM5			RTHOL			RTH2			RTH3			RSHAOL			RSHA2			RSHA3			RHEE			RTOE			RM5			STRN			XIPH			LACR			LUAOL			LUA2			LUA3			LLAOL			LLA2			LLA3			LWRU			RACR			RUAOL			RUA3			RLAOL			RLA2			RLA3			RWRU			USERMO0			USERMO1			USERMO2			USERMO3			USERMO4			USERMO5		
		X1	Y1	Z1	X2	Y2	Z2	X3	Y3	Z3	X4	Y4	Z4	X5	Y5	Z5	X6	Y6	Z6	X7	Y7	Z7	X8	Y8	Z8	X9	Y9	Z9	X10	Y10	Z10	X11	Y11	Z11	X12	Y12	Z12	X13	Y13	Z13	X14	Y14	Z14	X15	Y15	Z15	X16	Y16	Z16	X17	Y17	Z17	X18	Y18	Z18	X19	Y19	Z19	X20	Y20	Z20	X21	Y21	Z21	X22	Y22	Z22	X23	Y23	Z23	X24	Y24	Z24	X25	Y25	Z25	X26	Y26	Z26	X27	Y27	Z27	X28	Y28	Z28	X29	Y29	Z29	X30	Y30	Z30	X31	Y31	Z31	X32	Y32	Z32	X33	Y33	Z33	X34	Y34	Z34	X35	Y35	Z35	X36	Y36	Z36	X37	Y37	Z37	X38	Y38	Z38	X39	Y39	Z39	X40	Y40	Z40	X41	Y41	Z41	X42	Y42	Z42	X43	Y43	Z43	X44	Y44	Z44	X45	Y45	Z45	X46	Y46	Z46	X47	Y47	Z47	X48	Y48	Z48	X49	Y49	Z49	X50	Y50	Z50	X51	Y51	Z51	X52	Y52	Z52	X53	Y53	Z53	X54	Y54	Z54	X55	Y55	Z55	X56	Y56	Z56	X57	Y57	Z57	X58	Y58	Z58
																																																																																																																																																																															
385	1.92	125.9220734	1277.974365	-2256.45874	176.6617279	1279.321899	-34.82672501	485.2245483	1470.035522	-1133.387329	420.704071	1477.854736	-1060.112183	424.7324219	1480.054932	-1213.349854	244.6792603	1378.0625	-1134.751587	99.6107254	1241.896851	-1144.697632	79.04799652	1210.849976	-1151.337891	47.3069725	1154.833252	-1103.804199	58.5814743	1152.437988	-1152.445679	44.24405289	1096.65979	-1152.785278	13.03488541	1066.933838	-1147.402222	2.497568846	1005.915588	-1096.900879	-3.435836792	1006.958679	-1146.719727	-3.584112406	929.6241455	-1177.886597	4.912176132	938.8059082	-1128.322144	-28.73775101	882.5783081	-1138.608276	118.1006317	723.7651367	-1404.122314	76.90995789	655.3256836	-1397.896118	123.4360809	663.06073	-1416.330322	95.08869171	326.3191528	-1508.431274	63.36859894	254.1350555	-1514.216675	109.0671692	268.6365051	-1527.304077	69.87403107	36.86707687	-1498.383667	271.3536377	49.88301849	-1553.466797	205.8694153	23.23928261	-1644.911499	93.087677	695.4429321	-902.2802734	130.7403564	633.1328125	-869.4025879	85.22328949	634.7600098	-890.6312256	50.95058441	317.6395264	-805.6279297	95.99689484	261.7950439	-771.6464233	52.29044342	256.9308167	-795.7489014	52.9600296	34.71218491	-821.729126	246.8765106	46.38723373	-747.2035522	178.8441772	36.92358017	-661.7119751	338.15802	1233.684326	-1147.85437	315.2468262	1080.508423	-1144.279541	209.6446533	1321.705566	-1330.411133	87.97084808	1223.437378	-1360.042847	56.15723038	1176.724365	-1325.1604	59.69147873	1175.70105	-1376.24353	46.09384155	1144.898926	-1455.387939	88.67993927	1164.987427	-1500.732056	83.22303772	1196.725708	-1462.386475	127.8195801	1245.287109	-1513.467896	230.0827637	1315.276367	-952.7090454	107.8934402	1209.358765	-915.090332	54.46418762	1180.556396	-909.7197266	60.78412628	1174.625732	-834.6306152	107.5615921	1219.328613	-836.5120239	96.58724213	1201.509399	-789.4772949	130.1217194	1241.109253	-765.4052124	0.0622539	0.0149221	-0.0782414	0.0122889	0.040072899	-0.030636201	0.018902799	0.052078199	-0.0291523	0.080619797	0.180171996	-0.813544989	0.36935699	2.84623003	-0.31822899	2.933749914	0	0
386	1.925	126.0482559	1277.929565	-2256.419434	176.670578	1279.304077	-34.78183365	485.2608337	1470.031128	-1133.318726	420.741333	1477.834717	-1060.045166	424.7703552	1480.049316	-1213.278687	244.7465363	1378.035767	-1134.695068	99.66962433	1241.901611	-1144.664185	79.10366058	1210.861084	-1151.304688	47.34965134	1154.842285	-1103.779297	58.62532806	1152.453979	-1152.419556	44.29857254	1096.665405	-1152.773804	13.0729847	1066.95166	-1147.399658	2.517549276	1005.929382	-1096.907227	-3.410932302	1006.979126	-1146.726196	-3.533651829	929.6392822	-1177.90918	4.943823814	938.8222046	-1128.341187	-28.7100296	882.5993652	-1138.63855	118.2135925	723.7816162	-1404.133789	76.97353363	655.3724976	-1397.946167	123.5091019	663.0895996	-1416.365967	95.07972717	326.3303223	-1508.458008	63.36598206	254.1438599	-1514.254395	109.0691223	268.6474304	-1527.322388	69.87371063	36.86724472	-1498.369995	271.3547974	49.8809967	-1553.469238	205.8586121	23.23083115	-1644.904785	93.0365448	695.4403076	-902.2816162	130.678772	633.1254883	-869.3994141	85.16595459	634.756958	-890.6326294	50.87427902	317.6271667	-805.6481934	95.9243927	261.7952881	-771.6419678	52.22933578	256.9237366	-795.7643433	52.9631424	34.7130127	-821.7285156	246.8722076	46.38622665	-747.1843872	178.8292999	36.91793823	-661.6931763	338.2030945	1233.635498	-1147.796753	315.2332764	1080.469849	-1144.224487	209.7112579	1321.662842	-1330.358887	88.04462433	1223.392456	-1360.009521	56.22780991	1176.676636	-1325.129639	59.76706696	1175.648926	-1376.211304	46.16179276	1144.865234	-1455.348877	88.75085449	1164.958862	-1500.703125	83.29122162	1196.696655	-1462.355957	127.887001	1245.255127	-1513.438477	230.1273804	1315.23584	-952.6602783	107.9456787	1209.327515	-915.0687866	54.48962402	1180.549438	-909.6834717	60.81185532	1174.613281	-834.5898437	107.5965652	1219.307617	-836.487915	96.62944794	1201.490356	-789.4404907	130.161499	1241.087402	-765.3721313	0.0622635	0.0150201	-0.077696897	0.0123106	0.040525701	-0.0307856	0.019624701	0.0539729	-0.029769501	0.0813049	0.179221004	-0.814602971	0.366420001	2.844320059	-0.317874014	2.93404007	0	0
387	1.93	126.178421	1277.883423	-2256.383057	176.6858368	1279.285034	-34.73989105	485.2976379	1470.025391	-1133.246704	420.7786865	1477.813843	-1059.975586	424.8091125	1480.042725	-1213.20459	244.8162384	1378.00769	-1134.635742	99.73040771	1241.906494	-1144.630737	79.16108704	1210.872925	-1151.27124	47.3924675	1154.853271	-1103.753418	58.66946793	1152.471191	-1152.392456	44.35390472	1096.671631	-1152.762085	13.11098957	1066.971313	-1147.395752	2.536329031	1005.945618	-1096.911621	-3.386363029	1007.001465	-1146.730957	-3.487678289	929.6554565	-1177.929688	4.973581791	938.8403931	-1128.357056	-28.6856823	882.6229248	-1138.664673	118.3136597	723.7972412	-1404.142334	77.02700806	655.4172363	-1397.990234	123.5658493	663.1208496	-1416.404297	95.0610199	326.3398743	-1508.480347	63.35689926	254.149353	-1514.2854	109.0625763	268.6574402	-1527.337646	69.87283325	36.86749649	-1498.354736	271.355957	49.8789444	-1553.47229	205.8466187	23.22118759	-1644.898071	92.98670959	695.4401245	-902.2763062	130.6191101	633.1210327	-869.3892822	85.11008453	634.7564087	-890.6264038	50.80009079	317.6149292	-805.6647949	95.85417938	261.7950745	-771.6352539	52.17082977	256.9157715	-795.7786255	52.96598434	34.71372986	-821.7286987	246.8680573	46.38455582	-747.1679688	178.8154755	36.91210938	-661.6759644	338.250885	1233.585327	-1147.736816	315.2207031	1080.42981	-1144.166016	209.7841492	1321.621094	-1330.308105	88.12419891	1223.348999	-1359.975708	56.30080795	1176.632568	-1325.098877	59.84748077	1175.599976	-1376.179077	46.23454666	1144.832397	-1455.308105	88.82707214	1164.929443	-1500.672729	83.36449432	1196.668091	-1462.324829	127.9590836	1245.222168	-1513.409668	230.1745453	1315.19519	-952.611084	107.9979324	1209.297729	-915.0449219	54.51613617	1180.543335	-909.6461792	60.84280396	1174.60083	-834.5476685	107.6356354	1219.285156	-836.4651489	96.67578125	1201.470825	-789.402771	130.2055511	1241.065674	-765.340332	0.0624323	0.0151536	-0.076962598	0.0123085	0.041041899	-0.0308004	0.020433599	0.055513099	-0.030402601	0.0819102	0.178428993	-0.814966977	0.364241987	2.842370033	-0.317543	2.934279919	0	0
388	1.935	126.3121796	1277.835938	-2256.349854	176.7070313	1279.264893	-34.70101166	485.3345337	1470.018677	-1133.171753	420.815918	1477.792114	-1059.903564	424.8484802	1480.0354	-1213.12793	244.8890381	1377.978638	-1134.573975	99.79338837	1241.911743	-1144.597412	79.22049713	1210.885498	-1151.237549	47.4357605	1154.866089	-1103.726563	58.71414948	1152.489624	-1152.364502	44.41034698	1096.678467	-1152.75	13.14911747	1066.99292	-1147.390625	2.554240704	1005.964355	-1096.913696	-3.361958504	1007.025696	-1146.733765	-3.445518255	929.6711426	-1177.946777	5.001591682	938.8598633	-1128.368774	-28.66459656	882.6484375	-1138.686157	118.3993301	723.8119507	-1404.147583	77.06984711	655.4589233	-1398.027344	123.6065216	663.1535645	-1416.443726	95.03408051	326.3478699	-1508.498413	63.34248352	254.1517792	-1514.309937	109.0487289	268.6665649	-1527.349976	69.87132263	36.86787033	-1498.338135	271.3571472	49.87686539	-1553.47583	205.8338318	23.21062088	-1644.891357	92.93891907	695.4421387	-902.2646484	130.5623016	633.1193237	-869.3727417	85.05645752	634.7583618	-890.612915	50.72874832	317.6028442	-805.6776733	95.78699493	261.7944641	-771.6265259	52.11550903	256.9069824	-795.791687	52.96858978	34.71435928	-821.7294922	246.8641052	46.38228226	-747.1540527	178.8025665	36.90631104	-661.6602173	338.3016357	1233.533813	-1147.675171	315.2097473	1080.388794	-1144.104736	209.86409	1321.580444	-1330.259644	88.20864868	1223.307983	-1359.941406	56.3754921	1176.593384	-1325.067383	59.93164825	1175.555664	-1376.146606	46.31070709	1144.80188	-1455.265869	88.90736389	1164.899902	-1500.640625	83.44208527	1196.640625	-1462.292969	128.0356445	1245.188477	-1513.381592	230.2246246	1315.154419	-952.5618896	108.0501785	1209.27002	-915.0192871	54.54328537	1180.538208	-909.6084595	60.87649155	1174.588867	-834.5046387	107.6784439	1219.261841	-836.4437256	96.72560883	1201.450928	-789.364563	130.253479	1241.044434	-765.3098145	0.0627262	0.0153156	-0.075823799	0.0122911	0.041556198	-0.030680999	0.021314399	0.056551501	-0.0310094	0.082391798	0.177770004	-0.814756989	0.36272499	2.840349913	-0.317236006	2.934459925	0	0
389	1.94	126.4491806	1277.786987	-2256.319824	176.7336731	1279.243652	-34.66534424	485.3710632	1470.01123	-1133.093994	420.8528748	1477.769775	-1059.829224	424.8882751	1480.02771	-1213.049194	244.9656372	1377.948975	-1134.510254	99.85877991	1241.917236	-1144.564453	79.2820282	1210.898926	-1151.203857	47.47979355	1154.880859	-1103.699097	58.7595787	1152.509399	-1152.335815	44.46811676	1096.685913	-1152.737671	13.18750954	1067.016235	-1147.384277	2.571597815	1005.985657	-1096.913574	-3.337572098	1007.051819	-1146.734497	-3.406381845	929.6854248	-1177.959717	5.028066635	938.8799438	-1128.376221	-28.64657402	882.6752319	-1138.702271	118.4697113	723.8253174	-1404.149536	77.10192108	655.4968262	-1398.057251	123.632019	663.1864624	-1416.482178	95.00039673	326.3543396	-1508.512329	63.32379532	254.151413	-1514.327881	109.0287399	268.6747437	-1527.359375	69.86912537	36.86839676	-1498.320435	271.3583679	49.87477875	-1553.479736	205.8206787	23.19946098	-1644.884888	92.89385223	695.446228	-902.2472534	130.5091858	633.1200562	-869.350647	85.00572205	634.7625732	-890.5926514	50.66085052	317.5910645	-805.6867676	95.72350311	261.7935181	-771.6160889	52.06386185	256.8974304	-795.8032837	52.9710083	34.71494675	-821.7310181	246.8603668	46.37944412	-747.1424561	178.790451	36.90076447	-661.645752	338.3554993	1233.480835	-1147.612427	315.2006836	1080.347046	-1144.040894	209.9515381	1321.540771	-1330.214111	88.29670715	1223.270264	-1359.906616	56.4511261	1176.560059	-1325.035034	60.01841736	1175.51709	-1376.113525	46.38886261	1144.775024	-1455.2229	88.99047852	1164.87085	-1500.606567	83.52309418	1196.614868	-1462.260132	128.1164703	1245.154419	-1513.353882	230.2780151	1315.113647	-952.5130615	108.1026993	1209.244507	-914.9924927	54.57083511	1180.534668	-909.5709229	60.91251755	1174.578003	-834.4614258	107.7245865	1219.238403	-836.4234009	96.77835846	1201.431519	-789.326355	130.3049774	1241.023682	-765.2806396	0.063060097	0.0154948	-0.074117102	0.0122634	0.041991599	-0.030457901	0.0222458	0.056952201	-0.031549901	0.082683697	0.177328005	-0.814209998	0.361786008	2.838269949	-0.317070991	2.934600115	0	0
